HIERARCHY
ROOT Pelvis
{
	OFFSET 0.000000 0.000000 0.000000
	CHANNELS 6 Xposition Yposition Zposition Zrotation Yrotation Xrotation 
	JOINT Left_hip
	{
		OFFSET 0.069463 -0.088608 -0.009542
		CHANNELS 3 Zrotation Yrotation Xrotation
		JOINT Left_knee
		{
			OFFSET 0.030639 -0.359740 -0.005288
			CHANNELS 3 Zrotation Yrotation Xrotation
			JOINT Left_ankle
			{
				OFFSET -0.011068 -0.376034 -0.042462
				CHANNELS 3 Zrotation Yrotation Xrotation
				JOINT Left_foot
				{
					OFFSET 0.023192 -0.053321 0.111332
					CHANNELS 3 Zrotation Yrotation Xrotation
					End Site
					{
						OFFSET 0.000000 0.000000 0.000000
					}
				}
			}
		}
	}
	JOINT Right_hip
	{
		OFFSET -0.067438 -0.088025 -0.006263
		CHANNELS 3 Zrotation Yrotation Xrotation
		JOINT Right_knee
		{
			OFFSET -0.035962 -0.366229 -0.008063
			CHANNELS 3 Zrotation Yrotation Xrotation
			JOINT Right_ankle
			{
				OFFSET 0.013608 -0.375719 -0.040481
				CHANNELS 3 Zrotation Yrotation Xrotation
				JOINT Right_foot
				{
					OFFSET -0.021034 -0.045527 0.114617
					CHANNELS 3 Zrotation Yrotation Xrotation
					End Site
					{
						OFFSET 0.000000 0.000000 0.000000
					}
				}
			}
		}
	}
	JOINT Spine1
	{
		OFFSET -0.002610 0.101823 -0.019986
		CHANNELS 3 Zrotation Yrotation Xrotation
		JOINT Spine2
		{
			OFFSET 0.004114 0.128714 -0.000938
			CHANNELS 3 Zrotation Yrotation Xrotation
			JOINT Spine3
			{
				OFFSET 0.002191 0.048470 0.027684
				CHANNELS 3 Zrotation Yrotation Xrotation
				JOINT Neck
				{
					OFFSET -0.002856 0.198873 -0.044022
					CHANNELS 3 Zrotation Yrotation Xrotation
					JOINT Head
					{
						OFFSET 0.002981 0.062960 0.049860
						CHANNELS 3 Zrotation Yrotation Xrotation
						End Site
						{
							OFFSET 0.000000 0.000000 0.000000
						}
					}
				}
				JOINT Left_collar
				{
					OFFSET 0.073708 0.112550 -0.033440
					CHANNELS 3 Zrotation Yrotation Xrotation
					JOINT Left_shoulder
					{
						OFFSET 0.083291 0.030786 -0.008013
						CHANNELS 3 Zrotation Yrotation Xrotation
						JOINT Left_elbow
						{
							OFFSET 0.245601 -0.011792 -0.027873
							CHANNELS 3 Zrotation Yrotation Xrotation
							JOINT Left_wrist
							{
								OFFSET 0.232258 0.008622 -0.000487
								CHANNELS 3 Zrotation Yrotation Xrotation
								JOINT Left_palm
								{
									OFFSET 0.077300 -0.009457 -0.012851
									CHANNELS 3 Zrotation Yrotation Xrotation
									End Site
									{
										OFFSET 0.000000 0.000000 0.000000
									}
								}
							}
						}
					}
				}
				JOINT Right_collar
				{
					OFFSET -0.075339 0.110574 -0.037874
					CHANNELS 3 Zrotation Yrotation Xrotation
					JOINT Right_shoulder
					{
						OFFSET -0.086522 0.031207 -0.009986
						CHANNELS 3 Zrotation Yrotation Xrotation
						JOINT Right_elbow
						{
							OFFSET -0.237313 -0.011478 -0.019859
							CHANNELS 3 Zrotation Yrotation Xrotation
							JOINT Right_wrist
							{
								OFFSET -0.237599 0.007976 -0.003742
								CHANNELS 3 Zrotation Yrotation Xrotation
								JOINT Right_palm
								{
									OFFSET -0.076920 -0.006943 -0.009920
									CHANNELS 3 Zrotation Yrotation Xrotation
									End Site
									{
										OFFSET 0.000000 0.000000 0.000000
									}
								}
							}
						}
					}
				}
			}
		}
	}
}
MOTION
Frames: 13
Frame Time: 0.100000
0.303055 0.091256 -0.309322 169.024241 26.968509 -19.978579 7.018393 -10.900664 -25.793520 13.137123 0.035810 38.670398 -11.640629 19.551312 1.772165 18.702092 -12.932790 4.973708 15.679950 2.795271 12.158186 -1.884207 -7.978228 -2.478848 -10.645807 2.044416 -11.556046 18.551650 -39.195082 7.115126 -5.286991 10.287348 9.514327 15.212561 -11.380573 -1.493313 11.159542 0.417788 -7.008482 -10.274766 28.713133 -5.607365 -14.226114 20.174603 -14.645105 -7.824882 -24.726055 9.799199 -66.233615 14.918212 28.250551 -36.755702 -60.604014 87.582830 29.216480 -20.643046 7.402736 -26.787786 -7.242463 -36.720941 8.777760 25.283067 -7.398662 73.425073 40.816639 29.854376 -162.820323 25.972141 -122.281640 -0.136609 19.891029 -56.844385 5.718472 2.349530 -7.759087 
0.311334 0.093705 -0.309321 167.929121 27.858334 -20.354856 7.782026 -11.376534 -26.432147 13.403723 -0.664707 38.481478 -12.059833 19.490818 1.537362 18.965480 -13.767605 5.654460 16.642966 2.766968 11.667252 -1.417721 -8.849765 -2.664420 -10.849154 2.010880 -11.775737 18.454722 -39.322735 7.735290 -5.714712 10.634797 9.708841 15.919185 -11.451569 -1.462980 11.761751 0.479070 -7.377061 -10.085783 28.126894 -6.021916 -13.480915 19.147644 -14.568037 -8.226872 -25.634380 9.986795 -66.821855 14.802963 28.609263 -35.741968 -60.630738 86.383845 28.666389 -20.150068 7.351620 -26.729482 -7.471859 -36.848482 9.758514 26.064995 -6.856980 72.977838 40.356994 29.550033 -163.319038 26.110411 -122.507570 1.400883 20.780146 -57.811325 5.304146 2.249160 -7.418197 
0.316204 0.092981 -0.309036 168.134969 28.235392 -20.206710 8.010361 -10.751942 -26.641510 13.019088 -0.393644 38.096902 -12.267593 19.007559 1.762494 18.801528 -13.714727 5.649697 16.323185 2.248794 11.246865 -0.960370 -9.655940 -2.409815 -10.984283 2.872777 -11.871504 19.176722 -39.958759 7.567527 -5.782407 10.595934 10.181715 15.590093 -11.335427 -1.658442 11.611719 0.495855 -7.490045 -9.886275 27.645321 -5.639417 -13.320799 18.823086 -14.617950 -8.299953 -24.832378 10.000212 -66.423699 15.468066 28.387899 -36.709906 -61.360485 87.598602 28.031503 -20.426679 7.443152 -26.641644 -7.188871 -37.022172 9.420470 25.732506 -7.109970 72.631784 40.697751 29.124943 -163.228484 26.288420 -122.709085 1.814271 21.162649 -58.294170 5.106956 2.110727 -6.949631 
0.314666 0.087788 -0.306757 169.321785 29.852096 -20.547963 7.512193 -5.744032 -26.047144 5.980046 -1.560141 39.064968 -13.915907 10.190867 -1.277105 17.070534 -10.883218 4.513269 13.383349 -1.763116 11.425388 0.029916 -11.198468 -1.075779 -9.327900 5.684506 -11.870392 19.469756 -38.885058 5.937178 -4.753643 10.128336 12.762787 12.864586 -10.764684 -1.960275 9.983062 0.683621 -7.560641 -8.016608 24.867577 -6.549813 -12.185115 17.446073 -15.241420 -8.932494 -21.055381 9.217413 -62.485459 18.562811 26.526455 -43.257246 -63.903597 95.100233 25.325448 -22.961017 8.379437 -26.772673 -6.097842 -37.244774 6.389882 24.522484 -9.434692 68.258194 42.099937 24.413681 -161.497406 26.793899 -123.975574 3.115468 22.618832 -58.706383 5.063135 2.092183 -4.266039 
0.299706 0.074258 -0.305743 170.056720 33.454482 -21.430691 4.812480 -2.031728 -21.890385 1.537893 -1.374727 37.559440 -14.209863 6.863098 -3.405472 15.888293 -8.634824 2.662837 9.855630 -3.258693 8.765469 -0.062607 -12.624214 7.210060 -7.700592 4.856167 -10.939929 19.146869 -37.405890 5.672051 -2.896233 8.169585 14.701813 8.906253 -8.942456 -1.882216 7.529365 0.869539 -7.471985 -4.012181 16.344484 -7.339785 -9.598783 15.202188 -15.959144 -11.219465 -17.152451 8.325310 -56.321478 21.969490 26.189433 -50.199475 -67.608508 101.124882 20.444960 -25.315323 9.232728 -26.498825 -4.197558 -38.658617 0.587494 23.919825 -13.191972 51.086571 44.251107 10.840590 -151.589787 26.479372 -122.715736 7.344774 25.715551 -61.598234 1.545635 0.286380 -1.119378 
0.272014 0.058466 -0.303664 168.914393 38.479073 -22.526515 2.957013 0.716310 -14.170670 -2.530078 -7.397391 27.159218 -15.102687 4.142355 -0.930419 16.453743 -8.837665 -0.806538 4.554881 -5.495394 2.894776 1.960703 -14.167563 21.091488 -2.674885 4.734132 -7.119270 14.134071 -33.853326 6.316691 -1.002170 5.459915 13.077704 6.138744 -7.012721 -2.005081 5.611468 0.853024 -6.986147 -0.891949 6.707890 -6.222646 -6.553805 11.348282 -14.790322 -10.168223 -14.083234 5.560734 -52.087699 22.826384 28.447252 -57.060037 -68.454944 108.013002 17.663627 -25.367882 9.038869 -27.638581 -4.182920 -40.596301 -6.854387 21.323162 -17.575374 24.791833 42.101462 -11.594136 -130.750122 29.589432 -113.162210 12.302539 24.818151 -55.840174 0.570908 -0.714174 -0.910598 
0.234189 0.049641 -0.299821 167.552331 44.497234 -25.379175 0.584146 2.752320 -1.981924 -2.572282 -16.099793 11.346292 -13.110362 4.692485 -0.523313 14.059543 -8.851185 -1.895736 -1.917655 -8.750336 -0.798429 3.195700 -15.970121 34.751642 3.709037 3.706969 1.473659 11.784557 -30.420756 6.263069 0.553086 2.204598 11.728958 2.783206 -4.828258 -2.705253 3.912671 0.395526 -6.668411 1.550380 -3.023997 -3.027758 -4.410004 9.712693 -13.749146 -10.094887 -11.474694 3.610243 -45.990491 21.487554 32.488760 -61.845071 -67.445437 109.955219 21.220132 -26.354181 5.176202 -26.910669 -2.921139 -41.223340 -13.714543 19.445951 -21.057193 1.088175 34.688816 -28.179102 -96.119965 33.780281 -97.846242 8.486088 19.738738 -51.357929 0.230545 -1.798127 -1.842924 
0.199946 0.053276 -0.294456 167.756112 49.069440 -28.977499 -1.154425 4.118403 11.163414 -0.190723 -24.305128 -2.767082 -11.260178 6.896952 0.690821 10.918333 -7.386333 -3.274688 -6.741726 -10.154454 -1.661197 2.472944 -13.767097 45.384415 8.398640 -2.178133 9.816147 8.907274 -24.172012 5.327132 2.246650 -1.042246 11.606444 -2.175750 -1.446875 -3.068204 1.740021 0.483733 -5.958426 2.394382 -12.536898 0.150432 -2.248086 9.618798 -12.860587 -10.509110 -8.345174 1.392540 -38.081155 18.443145 35.540959 -73.644329 -66.705143 118.824160 23.497673 -26.824195 0.586203 -22.834756 -0.057123 -38.603823 -19.852880 19.056428 -22.829927 -16.594432 23.311470 -36.561124 -54.412781 31.203627 -77.088138 2.979142 13.429254 -39.362727 -1.338233 -2.972589 -2.712645 
0.173574 0.068841 -0.294488 171.263939 52.100615 -31.196737 -4.335601 4.620719 21.866139 1.995675 -31.015425 -10.712507 -7.687888 9.669793 1.677298 6.225852 -3.854453 -5.324825 -10.274929 -9.843218 -1.472961 1.080159 -8.442606 54.358119 10.355230 -11.011263 14.218781 4.391663 -15.141061 3.875559 3.451361 -3.755164 13.683171 -8.351676 2.098971 -3.559490 -1.202761 0.963600 -4.467159 2.743172 -20.731301 1.850677 0.342084 9.035638 -11.206967 -11.329122 -5.491488 -0.914883 -29.984061 15.074796 36.085395 -89.025041 -65.865803 131.363752 27.134929 -26.455462 -3.366732 -16.883114 2.686775 -32.968609 -24.793254 20.013021 -24.160589 -27.909285 12.623186 -38.574954 -21.524616 20.641614 -62.600178 -8.847223 7.746423 -17.232306 -2.142153 -3.019239 -4.457742 
0.154771 0.082814 -0.297452 175.534683 52.681740 -31.953358 -8.721752 4.934583 28.280443 3.889140 -34.067401 -13.140107 -2.457626 12.243058 2.711854 -0.416726 -0.457512 -7.296329 -11.475441 -8.165375 -2.334217 -1.325675 -3.685139 61.343945 8.962306 -15.769462 18.688253 5.058966 -12.368491 1.532054 4.822442 -5.761196 16.908042 -13.422505 4.621597 -5.739614 -3.819561 1.664597 -3.057467 1.276926 -25.750108 5.767834 1.406012 9.048448 -10.355691 -11.546114 -2.357925 -2.055073 -25.913785 13.417921 34.303145 -100.500460 -66.030964 142.873810 31.427755 -25.880144 -4.528016 -11.731894 4.252238 -28.185876 -28.276790 20.549834 -24.631336 -31.459714 10.304859 -38.802828 -8.989781 10.959310 -57.306711 -29.145023 7.132273 2.420031 -0.448005 -1.718250 -6.996090 
0.140978 0.088897 -0.300457 177.839360 52.778137 -32.206435 -11.620956 5.570666 31.016905 4.673562 -34.472103 -13.273336 0.327317 12.494941 3.587972 -5.500090 1.956341 -9.068999 -10.773161 -6.125389 -2.623039 -3.870880 -1.421412 64.304818 6.283952 -17.715404 20.156734 7.619276 -12.298090 0.313266 6.399710 -7.441167 19.922869 -16.399938 5.842646 -8.637970 -5.332956 2.192644 -2.735824 -0.514159 -27.924681 8.699778 0.269214 8.875785 -9.382251 -12.920915 0.153388 -2.742130 -24.471335 12.552113 32.270714 -105.748647 -66.680770 148.838757 34.003127 -27.171428 -3.651727 -7.350572 5.175816 -25.041860 -28.801307 21.440780 -24.691829 -33.551130 11.732531 -39.936467 -5.790349 6.525907 -56.556007 -48.746780 13.331082 11.834369 1.501595 -0.639530 -8.019274 
0.131468 0.090189 -0.303026 178.279802 53.456097 -31.793030 -12.492583 5.848834 31.327011 4.663274 -34.792242 -13.250665 0.340070 12.321643 3.553186 -5.791497 2.222675 -9.543847 -10.354074 -5.379889 -2.205508 -4.909301 -1.115290 64.292069 5.099513 -18.762586 18.918260 8.228694 -12.621700 0.389570 6.909803 -7.974213 20.171719 -16.923913 5.685308 -9.275539 -5.705474 2.116486 -2.398863 -1.473462 -29.050150 9.474462 -0.025144 8.389358 -8.999092 -12.954738 0.318677 -2.903163 -24.606783 12.396764 31.832306 -104.471717 -67.333208 148.468389 34.315623 -27.789494 -0.848498 -6.736534 5.678470 -25.226025 -29.409194 21.212852 -24.967506 -32.940900 11.929556 -39.240331 -6.120933 7.215812 -55.364512 -49.953925 14.086288 12.276389 0.497633 -0.950681 -7.494107 
0.126619 0.088213 -0.303444 177.497634 53.831423 -31.335396 -12.311479 5.569741 30.364994 4.488388 -34.532446 -13.074556 -0.851505 12.742826 2.604885 -4.352987 0.464886 -9.096291 -9.713868 -4.983511 -1.874225 -4.817412 -1.037161 63.378741 5.523718 -18.359813 15.719810 7.609474 -13.021687 1.688826 6.482302 -7.927449 19.700261 -16.180780 4.742617 -9.459133 -5.627968 1.850202 -2.162496 -2.026081 -30.534621 10.171498 0.917508 5.910648 -7.433788 -12.356666 -0.423635 -2.406884 -24.435151 12.220796 33.056575 -103.034592 -66.558873 145.573436 36.414033 -27.950882 -4.606147 -6.973127 5.999518 -24.453650 -29.196314 21.080191 -25.052646 -32.362640 11.634964 -38.800903 -6.656045 7.821212 -56.443502 -50.367569 13.682576 9.556977 -0.144265 -1.085676 -6.987497 
